# xmcd CD database file
#
# Track frame offsets:
#	150
#	11297
#	28530
#	40655
#	64305
#	81525
#	94592
#	111120
#	128587
#	147087
#	162665
#	182357
#	208125
#	221855
#	237310
#
# Disc length: 3407 seconds
#
# Revision: 0
# Processed by: cddbd v1.4b42PL1 Copyright (c) Steve Scherf et al.
# Submitted via: CDex 1.40Beta5
#
DISCID=ce0d4d0f
DTITLE=Downchild Blues Band - a case of the blues - best of
DYEAR=1998
DGENRE=Blues
TTITLE0=Tell your mother
TTITLE1=It's a matter of time
TTITLE2=I got everything I need (almost)
TTITLE3=Wednesday night blues
TTITLE4=I am Mr. Downchild
TTITLE5=Madison Blues
TTITLE6=I've been a fool
TTITLE7=Dew drop Inn
TTITLE8=Tryin' to keep her 88's straight
TTITLE9=Annie's got a sister
TTITLE10=Don't mind Dyin'
TTITLE11=Shotgun Blues
TTITLE12=Flip Flop and Fly
TTITLE13=Stagger Lee
TTITLE14=Last chance to dance
EXTD=YEAR: 1998 ID3G:   0
EXTT0=
EXTT1=
EXTT2=
EXTT3=
EXTT4=
EXTT5=
EXTT6=
EXTT7=
EXTT8=
EXTT9=
EXTT10=
EXTT11=
EXTT12=
EXTT13=
EXTT14=
PLAYORDER=
